<?xml version="1.0" encoding="UTF-8" standalone="no"?>
<svg
   xmlns:dc="http://purl.org/dc/elements/1.1/"
   xmlns:cc="http://creativecommons.org/ns#"
   xmlns:rdf="http://www.w3.org/1999/02/22-rdf-syntax-ns#"
   xmlns:svg="http://www.w3.org/2000/svg"
   xmlns="http://www.w3.org/2000/svg"
   xmlns:sodipodi="http://sodipodi.sourceforge.net/DTD/sodipodi-0.dtd"
   xmlns:inkscape="http://www.inkscape.org/namespaces/inkscape"
   id="dino3"
   enable-background="new 0 0 300 300"
   height="24"
   viewBox="0 0 64 48"
   width="32"
   version="1.1"
   sodipodi:docname="IconSource.svg"
   inkscape:version="1.0 (4035a4fb49, 2020-05-01)"
   inkscape:export-filename="N:\WestonsData\My Software\TyrannosaurusPlex\IconPNG FullSize3.png"
   inkscape:export-xdpi="1800"
   inkscape:export-ydpi="1800">
  <metadata
     id="metadata11">
    <rdf:RDF>
      <cc:Work
         rdf:about="">
        <dc:format>image/svg+xml</dc:format>
        <dc:type
           rdf:resource="http://purl.org/dc/dcmitype/StillImage" />
        <dc:title></dc:title>
      </cc:Work>
    </rdf:RDF>
  </metadata>
  <defs
     id="defs9" />
  <sodipodi:namedview
     inkscape:document-rotation="0"
     pagecolor="#ffffff"
     bordercolor="#666666"
     borderopacity="1"
     objecttolerance="10"
     gridtolerance="10"
     guidetolerance="10"
     inkscape:pageopacity="0"
     inkscape:pageshadow="2"
     inkscape:window-width="1600"
     inkscape:window-height="847"
     id="namedview7"
     showgrid="false"
     inkscape:pagecheckerboard="true"
     inkscape:zoom="10.655237"
     inkscape:cx="21.391844"
     inkscape:cy="13.297413"
     inkscape:window-x="1072"
     inkscape:window-y="22"
     inkscape:window-maximized="1"
     inkscape:current-layer="layer3" />
  <g
     inkscape:groupmode="layer"
     id="layer2"
     inkscape:label="Layer 1">
    <path
       style="fill:#ed0000;fill-opacity:1;stroke-width:0.0387401;stroke-miterlimit:4;stroke-dasharray:none"
       d="m 31.895595,36.246272 c -0.933853,0.828556 -2.308757,2.847356 -0.459029,3.513973 1.201892,0.897449 3.246343,0.02474 2.648248,-1.610388 -0.234941,-1.055019 -0.772683,-3.077409 -2.189219,-1.903585 z"
       id="path861" />
    <path
       style="fill:#ed0000;fill-opacity:1;stroke-width:0.0387401;stroke-miterlimit:4;stroke-dasharray:none"
       d="m 35.395696,38.789219 c -2.225868,0.801725 0.197875,3.397695 1.785046,2.887852 1.664858,-0.260579 0.978955,-2.434554 -0.401653,-2.569432 -0.4465,-0.14709 -0.90406,-0.345748 -1.383393,-0.31842 z"
       id="path863" />
    <path
       style="fill:#ed0000;fill-opacity:1;stroke-width:0.0136947;stroke-miterlimit:4;stroke-dasharray:none"
       d="m 35.374385,30.274722 c -0.699504,0.0747 -1.581645,0.185103 -1.765783,1.014623 -0.262999,1.477161 -0.72893,2.906816 -1.373263,4.260437 -0.396689,0.940639 0.809093,1.906034 1.627811,1.270508 1.690697,-1.345462 2.923539,-3.558455 2.617247,-5.762089 -0.135452,-0.477905 -0.6096,-0.81568 -1.106012,-0.783479 z"
       id="path865" />
    <path
       style="fill:#ed0000;fill-opacity:1;stroke-width:0.0136947;stroke-miterlimit:4;stroke-dasharray:none"
       d="m 34.023189,38.286725 c -1.04522,0.07474 -1.243887,1.603277 -0.330555,2.030137 0.771766,0.640626 2.089366,-0.09477 1.793423,-1.104003 -0.160563,-0.622398 -0.847771,-0.99801 -1.462868,-0.926134 z"
       id="path867" />
    <path
       style="fill:#008000;fill-opacity:1;stroke-width:0.0136947;stroke-miterlimit:4;stroke-dasharray:none"
       d="m 48.656992,5.1585592 c -2.678809,0.03289 -5.225723,1.471601 -6.756373,3.650603 -3.155309,4.1941538 -8.207886,7.0132118 -13.485052,7.4054918 -3.816547,0.472131 -7.810134,0.53756 -11.326031,2.285536 -2.261424,1.10827 -4.741712,1.972871 -7.2989488,1.719686 -1.512011,-0.03964 -2.8729831,-0.734362 -4.2381479,-1.296365 -0.9150544,-0.299228 -1.6824395,0.884545 -1.0823837,1.616442 1.9029235,3.007885 4.9726609,5.0815 8.1319204,6.597282 1.678657,0.781241 3.388477,1.617176 5.208861,1.973746 1.074318,-0.135592 1.020977,-1.405692 0.954441,-2.214919 -0.02651,-0.766708 0.0037,-1.536771 0.109441,-2.296946 0.01879,2.092534 -0.168135,4.264619 0.669759,6.24258 0.95599,2.79563 2.749673,5.224136 4.859403,7.261808 0.140432,1.332761 -0.248389,2.945251 0.7311,4.037542 1.063986,0.947697 2.613209,0.565072 3.908255,0.685863 1.80172,-0.04137 3.626482,0.127649 5.413932,-0.126621 1.026653,-0.228451 0.98088,-1.805155 -0.0243,-2.033927 -1.264449,-0.483118 -2.687384,-0.544524 -3.88954,-1.166862 -0.711863,-0.575049 -0.359879,-1.628076 0.261682,-2.125984 1.67168,-2.023093 2.883614,-4.57298 2.750315,-7.250144 0.02899,-0.747517 -0.05022,-1.804157 -0.138417,-2.35891 0.205086,0.819173 -0.07411,1.964037 0.871523,2.393905 1.185389,0.363598 2.360809,-0.384963 3.427921,-0.819365 1.129138,-0.591724 2.327695,-1.210036 3.136148,-2.212914 0.496545,-0.69141 -0.909432,-1.441191 -0.623449,-1.402374 2.055255,0.01897 4.11051,0.03772 6.165763,0.05652 1.141077,0.483149 0.609374,2.074465 1.664367,2.62906 1.080116,0.591091 2.262627,-0.625236 2.062235,-1.725216 0.03624,-1.274135 -0.171114,-2.849801 -1.48315,-3.442407 -1.353308,-0.669859 -2.927763,-0.301231 -4.379466,-0.404558 -1.015763,-0.02386 -1.190419,0.174947 -0.335234,-0.514667 0.56658,-1.686753 0.959757,-3.420392 1.605521,-5.079581 2.534041,0.897664 4.915512,2.217038 7.507143,2.945126 1.526353,0.37534 3.299034,-0.933571 3.295742,-2.509141 -0.291838,-1.078052 -1.576554,-1.327263 -2.41099,-1.862159 -1.132462,-0.576249 -2.27324,-1.136054 -3.402812,-1.717999 2.441353,1.147072 4.807143,2.552761 7.352231,3.493006 1.257083,0.36292 2.429417,-0.586985 2.89386,-1.700698 0.997805,-1.509208 0.575611,-3.743401 -0.991792,-4.696533 C 57.2841,9.3653192 54.800892,7.5090692 52.17051,5.8896542 51.072968,5.3883462 49.863854,5.1333632 48.656997,5.1585552 Z m 3.853874,6.3899868 c 0.05034,0.111725 -0.180676,0.05257 0,0 z M 31.78509,23.218274 c 0.262128,0.469508 0.485043,0.960095 0.688525,1.457521 -0.225992,-0.523779 -0.503402,-1.023109 -0.738231,-1.542665 z"
       id="path879" />
    <path
       style="fill:#008000;fill-opacity:1;stroke-width:0.0136947;stroke-miterlimit:4;stroke-dasharray:none"
       d="m 35.321113,30.268481 c -0.722809,0.03686 -1.599738,0.244978 -1.74706,1.083944 -0.317503,2.03546 -1.12937,3.972699 -2.40282,5.597146 -0.487084,0.633032 -1.450438,1.343283 -0.871525,2.236984 0.787437,0.80374 2.107063,0.802577 3.071221,1.143893 0.787172,0.154716 1.540822,0.468305 2.05829,1.102011 0.743542,0.523587 1.779245,0.460772 2.619476,0.248307 1.011601,-0.477009 0.57195,-1.878248 -0.273049,-2.278001 -1.100875,-0.652093 -2.495699,-0.65881 -3.54717,-1.383294 -0.659336,-0.67055 0.0057,-1.499849 0.518233,-2.00651 1.191744,-1.34771 2.065895,-3.203233 1.713627,-5.028984 -0.160406,-0.468884 -0.65029,-0.764145 -1.139223,-0.715496 z"
       id="path881" />
  </g>
  <g
     inkscape:groupmode="layer"
     id="layer3"
     inkscape:label="Layer 2">
    <path
       d="m 2.6402783,16.991188 c 0.068651,-0.34324 0.3211341,-0.621157 0.6560726,-0.722822 0.3373021,-0.101661 0.7000179,-0.01079 0.947295,0.237547 4.0122144,4.010791 8.5313351,3.023593 11.6150251,1.489588 2.444955,-1.216422 4.907963,-1.955394 7.319902,-2.19673 l 5.530545,-0.552986 c 2.553035,-0.255113 5.065212,-1.087915 7.264797,-2.407424 l 0.303804,-0.182416 c 1.969407,-1.18174 3.645223,-2.7288108 4.980886,-4.5984528 1.44327,-2.020482 3.587744,-3.352346 6.038637,-3.750455 2.45232,-0.3981111 4.907489,0.187407 6.915855,1.648264 l 6.366435,4.6307578 c 1.676765,1.218795 2.220957,3.449734 1.293856,5.304176 l -0.421625,0.843489 c -0.783158,1.566311 -2.596743,2.285805 -4.211272,1.74945 l -0.01349,0.03941 c -0.352978,1.059173 -1.138985,1.928555 -2.157301,2.385574 -1.017841,0.457967 -2.189842,0.467708 -3.216946,0.02765 l -5.754306,-2.465858 -1.029956,3.432629 h 2.281297 c 2.040904,0 3.700808,1.659901 3.700808,3.700807 v 1.524979 c 0,1.309771 -1.065587,2.375358 -2.375362,2.375358 -1.309771,0 -2.375357,-1.065587 -2.375357,-2.375358 0,-0.262229 -0.212831,-0.475073 -0.475072,-0.475073 h -3.15281 c -1.364644,1.713347 -3.136186,3.043785 -5.127211,3.877537 0.259632,3.794633 -1.724272,5.907988 -2.591041,6.640547 -0.04586,0.03895 -0.0556,0.09003 -0.0556,0.126141 0,0.07647 0.05109,0.145124 0.124724,0.166502 l 2.523819,0.742301 c 1.237797,0.364142 2.102192,1.519752 2.102192,2.810048 v 0.839214 c 0,0.524716 -0.425429,0.950141 -0.950145,0.950141 h -1.900285 c 0,0.524716 -0.425429,0.950145 -0.950144,0.950145 h -9.195248 c -1.740662,0 -3.156612,-1.415951 -3.156612,-3.156614 v -2.027367 c -1.026629,-0.930425 -3.954021,-3.89535 -5.15904,-8.278594 -1.660136,-0.385999 -3.277992,-0.925204 -4.8101,-1.613346 C 1.531037,23.289791 2.589259,17.245691 2.6403289,16.991053 Z M 37.742604,40.905579 c -0.04488,-0.407377 -0.333036,-0.758452 -0.732084,-0.876032 l -2.523345,-0.742301 c -0.876743,-0.257473 -1.489349,-1.075799 -1.489349,-1.989837 0,-0.610941 0.265802,-1.185779 0.729234,-1.577476 0.608092,-0.514263 1.937344,-1.965844 1.923567,-4.579689 -0.380533,0.09408 -0.764865,0.17102 -1.154426,0.230163 -0.244661,2.285093 -1.169625,4.748816 -3.350916,7.077855 -0.04538,0.04821 -0.07246,0.107123 -0.07246,0.158206 0,0.108067 0.0734,0.200962 0.177191,0.226386 l 3.004351,0.733034 c 0.81475,0.199041 1.487688,0.690281 1.939481,1.339465 h 1.548734 z M 14.305897,26.946787 c 1.158464,0.519965 2.370846,0.948243 3.614108,1.283882 -0.165321,-1.312388 -0.163669,-2.722637 0.08622,-4.222437 0.08622,-0.516876 0.571986,-0.868903 1.093616,-0.78078 0.517352,0.08622 0.867005,0.575789 0.78078,1.093616 -1.286495,7.718963 5.100605,13.027886 5.165452,13.080618 0.221395,0.180528 0.35084,0.451793 0.35084,0.737314 v 2.460631 c 0,0.692654 0.563674,1.256328 1.256328,1.256328 h 7.886426 C 34.350842,41.642656 34.097609,41.484453 33.80378,41.412953 l -3.003879,-0.73351 c -0.957983,-0.233737 -1.627118,-1.086013 -1.627118,-2.072499 0,-0.537307 0.208784,-1.055373 0.586474,-1.45823 2.025943,-2.163003 2.792946,-4.446198 2.920739,-6.522261 -2.36e-4,-0.0026 -0.0019,-0.0047 -0.0021,-0.0075 -9.22e-4,-0.01079 0.0041,-0.02056 0.0037,-0.03169 0.226857,-3.922194 -1.820238,-7.094716 -1.952546,-7.29496 -0.289068,-0.437068 -0.170312,-1.026631 0.266274,-1.31666 0.436593,-0.289068 1.025205,-0.171728 1.315713,0.263914 0.0347,0.05179 2.052783,3.151625 2.24234,7.206122 2.070597,-0.381244 3.987988,-1.360606 5.524843,-2.792708 h -0.173178 c -0.524716,0 -0.950141,-0.425428 -0.950141,-0.950143 0,-0.524717 0.425425,-0.950145 0.950141,-0.950145 h 5.919985 c 1.309771,0 2.375357,1.065586 2.375357,2.375361 0,0.262228 0.212831,0.475068 0.475073,0.475068 0.262228,0 0.475072,-0.21283 0.475072,-0.475068 v -1.524983 c 0,-0.992899 -0.807624,-1.800517 -1.800523,-1.800517 h -4.649995 c -0.524717,0 -0.950141,-0.425429 -0.950141,-0.950145 0,-0.524716 0.425424,-0.950145 0.950141,-0.950145 h 0.380296 c 0.01349,-0.04323 0.02967,-0.08457 0.04276,-0.128028 l 1.461323,-4.870435 c 0.07793,-0.258925 0.262464,-0.472696 0.508089,-0.587426 0.245369,-0.115452 0.527565,-0.119734 0.77674,-0.01247 l 6.732714,2.885138 c 0.546097,0.233736 1.146348,0.228746 1.689593,-0.01483 0.542768,-0.24348 0.945154,-0.688382 1.133046,-1.253003 l 0.08767,-0.26297 -7.647464,-3.82385 c -0.469609,-0.234679 -0.65964,-0.805482 -0.424953,-1.274856 0.23468,-0.469131 0.80406,-0.659636 1.274856,-0.42495 l 8.384774,4.192507 c 2.4e-4,2.36e-4 4.76e-4,4.75e-4 7.12e-4,7.11e-4 l 0.527569,0.263443 c 0.37863,0.189329 0.806671,0.219473 1.209057,0.08622 0.401199,-0.133963 0.726146,-0.415687 0.915462,-0.794319 l 0.421628,-0.843489 c 0.509752,-1.019742 0.210707,-2.246853 -0.711657,-2.917655 L 53.095551,7.4915102 c -1.595528,-1.160362 -3.547834,-1.624745 -5.493016,-1.309296 -1.94708,0.31638 -3.650685,1.374143 -4.797034,2.979409 -1.487927,2.0831908 -3.355194,3.8065118 -5.549076,5.1231728 l -0.303803,0.182416 c -2.438544,1.462745 -5.223416,2.386046 -8.053413,2.66895 l -5.530549,0.552986 c -2.182714,0.218057 -4.424104,0.893609 -6.663115,2.007412 -2.574414,1.279606 -7.2161004,2.745676 -11.6938885,-0.131367 0.8748443,1.856819 3.1981845,4.641926 9.2943005,7.381424 z"
       id="path2"
       style="fill:#000000;fill-opacity:1;stroke-width:0.237082;stroke-miterlimit:4;stroke-dasharray:none" />
    <path
       d="m 52.481701,10.666323 c 0.5088,0 0.921402,0.412598 0.921402,0.921402 0,0.508801 -0.412602,0.921399 -0.921402,0.921399 -0.508801,0 -0.921399,-0.412598 -0.921399,-0.921399 0,-0.508804 0.412598,-0.921402 0.921399,-0.921402 z"
       id="path4"
       style="stroke-width:0.237536" />
  </g>
</svg>
