<?xml version="1.0" encoding="UTF-8" standalone="no"?>
<svg
   xmlns:dc="http://purl.org/dc/elements/1.1/"
   xmlns:cc="http://creativecommons.org/ns#"
   xmlns:rdf="http://www.w3.org/1999/02/22-rdf-syntax-ns#"
   xmlns:svg="http://www.w3.org/2000/svg"
   xmlns="http://www.w3.org/2000/svg"
   xmlns:sodipodi="http://sodipodi.sourceforge.net/DTD/sodipodi-0.dtd"
   xmlns:inkscape="http://www.inkscape.org/namespaces/inkscape"
   inkscape:export-ydpi="96"
   inkscape:export-xdpi="96"
   inkscape:export-filename="N:\WestonsData\My Software\TyrannosaurusPlex\IconPNG.png"
   inkscape:version="1.0 (4035a4fb49, 2020-05-01)"
   sodipodi:docname="IconSource.svg"
   version="1.1"
   width="32"
   viewBox="0 0 18.75 18.75"
   height="32"
   enable-background="new 0 0 300 300"
   id="dino3">
  <metadata
     id="metadata11">
    <rdf:RDF>
      <cc:Work
         rdf:about="">
        <dc:format>image/svg+xml</dc:format>
        <dc:type
           rdf:resource="http://purl.org/dc/dcmitype/StillImage" />
        <dc:title></dc:title>
      </cc:Work>
    </rdf:RDF>
  </metadata>
  <defs
     id="defs9" />
  <sodipodi:namedview
     inkscape:current-layer="layer2"
     inkscape:window-maximized="1"
     inkscape:window-y="892"
     inkscape:window-x="1072"
     inkscape:cy="13.297413"
     inkscape:cx="24.290976"
     inkscape:zoom="10.655237"
     inkscape:pagecheckerboard="true"
     showgrid="false"
     id="namedview7"
     inkscape:window-height="877"
     inkscape:window-width="1600"
     inkscape:pageshadow="2"
     inkscape:pageopacity="0"
     guidetolerance="10"
     gridtolerance="10"
     objecttolerance="10"
     borderopacity="1"
     bordercolor="#666666"
     pagecolor="#ffffff" />
  <g
     inkscape:label="Layer 1"
     id="layer2"
     inkscape:groupmode="layer">
    <path
       transform="scale(0.5859375)"
       id="path861"
       d="m 15.73675,23.05029 c -0.472673,0.419376 -1.168584,1.441197 -0.232339,1.778607 0.608341,0.454247 1.643145,0.01252 1.340418,-0.815102 -0.118916,-0.534001 -0.391096,-1.557639 -1.108079,-0.963505 z"
       style="fill:#ed0000;fill-opacity:1;stroke-width:0.0196084;stroke-miterlimit:4;stroke-dasharray:none" />
    <path
       transform="scale(0.5859375)"
       id="path863"
       d="m 17.508335,24.33741 c -1.126629,0.405795 0.100155,1.719753 0.903506,1.461694 0.842673,-0.131893 0.495501,-1.232256 -0.203297,-1.300525 -0.225998,-0.07445 -0.457593,-0.175001 -0.700209,-0.161169 z"
       style="fill:#ed0000;fill-opacity:1;stroke-width:0.0196084;stroke-miterlimit:4;stroke-dasharray:none" />
    <path
       transform="scale(0.5859375)"
       id="path865"
       d="m 17.497549,20.027774 c -0.354056,0.03781 -0.800554,0.09369 -0.893756,0.513554 -0.133118,0.747669 -0.36895,1.471293 -0.695081,2.156432 -0.200785,0.476107 0.409525,0.964744 0.823921,0.643071 0.855751,-0.681009 1.479757,-1.801122 1.324727,-2.916497 -0.06856,-0.241893 -0.308551,-0.412859 -0.559811,-0.39656 z"
       style="fill:#ed0000;fill-opacity:1;stroke-width:0.00693163;stroke-miterlimit:4;stroke-dasharray:none" />
    <path
       transform="scale(0.5859375)"
       id="path867"
       d="m 16.813637,24.083071 c -0.529041,0.03783 -0.629597,0.811503 -0.167311,1.02756 0.390631,0.324254 1.057538,-0.04797 0.907746,-0.558795 -0.08127,-0.315028 -0.429102,-0.505145 -0.740435,-0.468765 z"
       style="fill:#ed0000;fill-opacity:1;stroke-width:0.00693163;stroke-miterlimit:4;stroke-dasharray:none" />
    <path
       transform="scale(0.5859375)"
       id="path879"
       d="m 24.220577,7.3151585 c -1.355887,0.016647 -2.645014,0.7448551 -3.419757,1.8477629 -1.597068,2.1228826 -4.154444,3.5497566 -6.825496,3.7483106 -1.931756,0.23897 -3.953121,0.272087 -5.7327019,1.15683 -1.1446259,0.560954 -2.4000307,0.998574 -3.6943833,0.870424 -0.7653085,-0.02006 -1.4541683,-0.3717 -2.1451502,-0.656159 -0.4631573,-0.151455 -0.8515714,0.447715 -0.5478515,0.818167 0.96317,1.522449 2.516926,2.572015 4.1159941,3.339232 0.849657,0.395427 1.7150868,0.818538 2.6364793,0.999017 0.5437691,-0.06863 0.5167704,-0.711495 0.483093,-1.121087 -0.013417,-0.388072 0.00186,-0.777841 0.055394,-1.162606 0.00951,1.059142 -0.085102,2.158549 0.339,3.159699 0.4838775,1.415016 1.3917545,2.644211 2.4596005,3.675584 0.07108,0.674581 -0.125723,1.490747 0.370048,2.043613 0.53854,0.47968 1.322683,0.286013 1.978174,0.347152 0.911946,-0.02094 1.835554,0.06461 2.740277,-0.06409 0.519643,-0.115631 0.496475,-0.913684 -0.0123,-1.029478 -0.640004,-0.244531 -1.360227,-0.275612 -1.968701,-0.59061 -0.360312,-0.291063 -0.182154,-0.824055 0.132451,-1.076073 0.846125,-1.023994 1.459549,-2.314626 1.392079,-3.66968 0.01467,-0.378358 -0.02542,-0.913179 -0.07006,-1.193969 0.103805,0.414627 -0.03751,0.994103 0.441124,1.211682 0.599988,0.184036 1.19493,-0.19485 1.735052,-0.414724 0.571516,-0.299503 1.178169,-0.612463 1.58737,-1.120073 0.251327,-0.349959 -0.460312,-0.729462 -0.315561,-0.709815 1.040273,0.0096 2.080546,0.01909 3.120818,0.02861 0.577559,0.244547 0.308436,1.049996 0.842424,1.330706 0.546704,0.299182 1.145235,-0.316465 1.043806,-0.873223 0.01834,-0.644907 -0.08661,-1.442435 -0.750701,-1.742384 -0.68498,-0.339051 -1.481895,-0.152469 -2.216678,-0.204768 -0.514132,-0.01208 -0.602534,0.08855 -0.16968,-0.2605 0.286776,-0.853755 0.485784,-1.731241 0.812639,-2.571044 1.282612,0.454355 2.488,1.12216 3.799761,1.490684 0.772568,0.189979 1.669815,-0.47253 1.668149,-1.270009 -0.147715,-0.545659 -0.797977,-0.671798 -1.220329,-0.942537 -0.573199,-0.29167 -1.150607,-0.575017 -1.722343,-0.86957 1.235698,0.580594 2.433149,1.292087 3.721352,1.767995 0.636276,0.183693 1.229656,-0.297104 1.464735,-0.860813 0.505042,-0.76389 0.291347,-1.894733 -0.501998,-2.377163 -1.259497,-0.9258281 -2.51638,-1.8653742 -3.847755,-2.6850455 -0.555524,-0.2537383 -1.16752,-0.382799 -1.778374,-0.370048 z m 1.950649,3.2343095 c 0.02548,0.05655 -0.09145,0.02661 0,0 z m -10.490409,5.906665 c 0.132677,0.237643 0.245506,0.485955 0.348499,0.737728 -0.114386,-0.265112 -0.254798,-0.517849 -0.373658,-0.780824 z"
       style="fill:#008000;fill-opacity:1;stroke-width:0.00693163;stroke-miterlimit:4;stroke-dasharray:none" />
    <path
       transform="scale(0.5859375)"
       id="path881"
       d="m 17.470585,20.024615 c -0.365852,0.01866 -0.809712,0.123996 -0.884279,0.548641 -0.160705,1.030254 -0.571634,2.010793 -1.216194,2.833011 -0.246539,0.320411 -0.734143,0.679906 -0.441125,1.132256 0.398563,0.406815 1.066496,0.406226 1.554507,0.578984 0.398429,0.07831 0.779891,0.237034 1.041809,0.557786 0.376346,0.265015 0.90057,0.233221 1.325855,0.125681 0.512025,-0.241439 0.289494,-0.95068 -0.138204,-1.153016 -0.557211,-0.330059 -1.263205,-0.333459 -1.79541,-0.700158 -0.333725,-0.339401 0.0029,-0.759153 0.262305,-1.015601 0.603204,-0.682147 1.045658,-1.621325 0.867357,-2.545434 -0.08119,-0.237327 -0.329146,-0.386774 -0.576621,-0.36215 z"
       style="fill:#008000;fill-opacity:1;stroke-width:0.00693163;stroke-miterlimit:4;stroke-dasharray:none" />
  </g>
  <g
     sodipodi:insensitive="true"
     inkscape:label="Layer 2"
     id="layer3"
     inkscape:groupmode="layer">
    <path
       style="fill:#000000;fill-opacity:1;stroke-width:0.0703125;stroke-miterlimit:4;stroke-dasharray:none"
       id="path2"
       d="m 0.54438884,7.7954745 c 0.02036,-0.101796 0.09524,-0.184219 0.194574,-0.21437 0.100035,-0.03015 0.207607,-0.0032 0.28094296,0.07045 1.189918,1.189496 2.530171,0.896719 3.444713,0.441773 0.72511,-0.360759 1.455574,-0.579919 2.170892,-0.651493 l 1.640215,-0.164001 c 0.7571637,-0.07566 1.5022097,-0.322647 2.1545492,-0.713979 l 0.0901,-0.0541 c 0.584075,-0.350473 1.081078,-0.809294 1.477201,-1.363781 0.428036,-0.599222 1.064031,-0.994218 1.790902,-1.112287 0.727294,-0.118069 1.455433,0.05558 2.051062,0.488832 l 1.888118,1.373362 c 0.497285,0.361463 0.658678,1.023101 0.383724,1.57308 l -0.125043,0.250157 c -0.232264,0.464527 -0.770126,0.67791 -1.248953,0.518841 l -0.004,0.01169 c -0.104684,0.314123 -0.337793,0.571959 -0.639799,0.707499 -0.301865,0.135821 -0.64945,0.13871 -0.954062,0.0082 l -1.706577,-0.731309 -0.305458,1.018028 h 0.676573 c 0.605279,0 1.097563,0.492283 1.097563,1.0975625 v 0.452269 c 0,0.388444 -0.316025,0.704469 -0.70447,0.704469 -0.388444,0 -0.704469,-0.316025 -0.704469,-0.704469 0,-0.07777 -0.06312,-0.140894 -0.140894,-0.140894 h -0.935041 c -0.404718,0.508134 -0.930111,0.902707 -1.520597,1.149976 0.077,1.125389 -0.511374,1.752155 -0.768435,1.969413 -0.0136,0.01155 -0.01649,0.0267 -0.01649,0.03741 0,0.02268 0.01515,0.04304 0.03699,0.04938 l 0.748499,0.220147 c 0.367098,0.107995 0.623455,0.450719 0.623455,0.833387 v 0.248889 c 0,0.155617 -0.126171,0.281787 -0.281788,0.281787 h -0.563575 c 0,0.155617 -0.126171,0.281788 -0.281788,0.281788 H 7.6659528 c -0.516235,0 -0.936169,-0.419934 -0.936169,-0.936169 v -0.601265 c -0.304472,-0.27594 -1.17266,-1.155259 -1.530037,-2.455215 -0.492353,-0.114477 -0.972167,-0.274391 -1.42655,-0.478476 C 0.21541684,9.6634755 0.52925784,7.8709535 0.54440384,7.7954345 Z M 10.954822,14.887858 c -0.01331,-0.120817 -0.09877,-0.224937 -0.217117,-0.259808 L 9.9893465,14.407903 c -0.260019,-0.07636 -0.441702,-0.319054 -0.441702,-0.590134 0,-0.181189 0.07883,-0.351671 0.216272,-0.467838 0.180344,-0.152517 0.5745655,-0.583018 0.5704795,-1.358216 -0.112856,0.0279 -0.226839,0.05072 -0.3423725,0.06826 -0.07256,0.677699 -0.34688,1.408375 -0.993794,2.099107 -0.01346,0.0143 -0.02149,0.03177 -0.02149,0.04692 0,0.03205 0.02177,0.0596 0.05255,0.06714 l 0.891012,0.217399 c 0.2416335,0.05903 0.4412095,0.204719 0.5751995,0.39725 h 0.459314 z M 4.0041068,10.748045 c 0.34357,0.154208 0.703131,0.281224 1.07185,0.380766 -0.04903,-0.38922 -0.04854,-0.807463 0.02557,-1.2522645 0.02557,-0.153292 0.169636,-0.257694 0.324338,-0.231559 0.153433,0.02557 0.257131,0.170764 0.231559,0.324338 -0.381541,2.2892425 1.512706,3.8637305 1.531938,3.8793695 0.06566,0.05354 0.10405,0.13399 0.10405,0.218668 v 0.729759 c 0,0.205423 0.167171,0.372594 0.372594,0.372594 h 2.3389082 c -0.056,-0.06326 -0.1311025,-0.110179 -0.2182445,-0.131384 l -0.890872,-0.21754 c -0.2841127,-0.06932 -0.4825607,-0.322083 -0.4825607,-0.614649 0,-0.159351 0.06192,-0.312996 0.173933,-0.432473 0.6008417,-0.64149 0.8283147,-1.318626 0.8662147,-1.934332 -7e-5,-7.75e-4 -5.63e-4,-0.0014 -6.34e-4,-0.0022 -2.82e-4,-0.0032 0.0012,-0.0061 0.0011,-0.0094 0.06728,-1.16322 -0.539835,-2.1041075 -0.579074,-2.1634945 -0.08573,-0.129623 -0.05051,-0.304472 0.07897,-0.390487 0.129482,-0.08573 0.304049,-0.05093 0.390206,0.07827 0.01029,0.01536 0.608802,0.9346895 0.6650195,2.1371475 0.614085,-0.113067 1.182733,-0.40352 1.638524,-0.828244 h -0.05136 c -0.155617,0 -0.281787,-0.126171 -0.281787,-0.281788 0,-0.155617 0.12617,-0.281788 0.281787,-0.281788 h 1.755713 c 0.388444,0 0.704469,0.316025 0.704469,0.70447 0,0.07777 0.06312,0.140893 0.140894,0.140893 0.07777,0 0.140894,-0.06312 0.140894,-0.140893 v -0.45227 c 0,-0.294468 -0.23952,-0.5339865 -0.533988,-0.5339865 h -1.379069 c -0.155617,0 -0.281787,-0.126171 -0.281787,-0.281788 0,-0.155617 0.12617,-0.281788 0.281787,-0.281788 h 0.112786 c 0.004,-0.01282 0.0088,-0.02508 0.01268,-0.03797 l 0.43339,-1.444444 c 0.02311,-0.07679 0.07784,-0.140189 0.150686,-0.174215 0.07277,-0.03424 0.156462,-0.03551 0.230361,-0.0037 l 1.996747,0.855657 c 0.161958,0.06932 0.339977,0.06784 0.501089,-0.0044 0.160971,-0.07221 0.280308,-0.204156 0.336032,-0.371608 l 0.026,-0.07799 -2.268038,-1.134054 c -0.139274,-0.0696 -0.195632,-0.238885 -0.12603,-0.378089 0.0696,-0.139132 0.238463,-0.195631 0.378089,-0.126029 l 2.486705,1.243388 c 7.1e-5,7e-5 1.41e-4,1.41e-4 2.11e-4,2.11e-4 l 0.156463,0.07813 c 0.112292,0.05615 0.239238,0.06509 0.358575,0.02557 0.118985,-0.03973 0.215356,-0.123282 0.271502,-0.235574 l 0.125044,-0.250157 c 0.151179,-0.302429 0.06249,-0.666358 -0.211059,-0.8653 l -1.888189,-1.373292 c -0.473192,-0.344133 -1.052195,-0.481857 -1.629085,-0.388303 -0.577453,0.09383 -1.082698,0.407535 -1.422675,0.883615 -0.44128,0.61782 -0.995063,1.128912 -1.645711,1.519399 l -0.0901,0.0541 c -0.7232085,0.433812 -1.5491285,0.707639 -2.3884322,0.791541 l -1.640216,0.164001 c -0.647336,0.06467 -1.312074,0.265021 -1.976106,0.595346 -0.763504,0.379498 -2.140107,0.814296 -3.468102,-0.03896 0.259456,0.550684 0.948498,1.376674 2.756447,2.1891375 z" />
    <path
       style="stroke-width:0.0704469"
       id="path4"
       d="m 15.326053,5.9196845 c 0.150897,0 0.273264,0.122366 0.273264,0.273264 0,0.150897 -0.122367,0.273263 -0.273264,0.273263 -0.150897,0 -0.273263,-0.122366 -0.273263,-0.273263 0,-0.150898 0.122366,-0.273264 0.273263,-0.273264 z" />
  </g>
</svg>
